{
    "asset" : {
        "generator" : "Khronos glTF Blender I/O v0.9.36",
        "version" : "2.0"
    },
    "scene" : 0,
    "scenes" : [
        {
            "name" : "Scene",
            "nodes" : [
                0
            ]
        }
    ],
    "nodes" : [
        {
            "mesh" : 0,
            "name" : "TREE_STUMP_CARVED_5K"
        }
    ],
    "materials" : [
        {
            "doubleSided" : true,
            "name" : "TREE_STUMP_CARVED_500K_Material_u1_v1.001",
            "normalTexture" : {
                "index" : 0,
                "texCoord" : 0
            },
            "pbrMetallicRoughness" : {
                "baseColorTexture" : {
                    "index" : 1,
                    "texCoord" : 0
                },
                "metallicFactor" : 0,
                "roughnessFactor" : 1
            }
        }
    ],
    "meshes" : [
        {
            "name" : "TREE_STUMP_CARVED_500K.001",
            "primitives" : [
                {
                    "attributes" : {
                        "POSITION" : 0,
                        "NORMAL" : 1,
                        "TEXCOORD_0" : 2
                    },
                    "indices" : 3,
                    "material" : 0
                }
            ]
        }
    ],
    "textures" : [
        {
            "source" : 0
        },
        {
            "source" : 1
        }
    ],
    "images" : [
        {
            "bufferView" : 4,
            "mimeType" : "image/jpeg",
            "name" : "tree_stump_carved_5k_Height"
        },
        {
            "bufferView" : 5,
            "mimeType" : "image/jpeg",
            "name" : "tree_stump_carved_5k_BaseColor"
        }
    ],
    "accessors" : [
        {
            "bufferView" : 0,
            "componentType" : 5126,
            "count" : 4151,
            "max" : [
                1.3183447122573853,
                1.0687350034713745,
                1.2390010356903076
            ],
            "min" : [
                -1.2208099365234375,
                -0.17583505809307098,
                -1.2010177373886108
            ],
            "type" : "VEC3"
        },
        {
            "bufferView" : 1,
            "componentType" : 5126,
            "count" : 4151,
            "type" : "VEC3"
        },
        {
            "bufferView" : 2,
            "componentType" : 5126,
            "count" : 4151,
            "type" : "VEC2"
        },
        {
            "bufferView" : 3,
            "componentType" : 5123,
            "count" : 15000,
            "type" : "SCALAR"
        }
    ],
    "bufferViews" : [
        {
            "buffer" : 0,
            "byteLength" : 49812,
            "byteOffset" : 0
        },
        {
            "buffer" : 0,
            "byteLength" : 49812,
            "byteOffset" : 49812
        },
        {
            "buffer" : 0,
            "byteLength" : 33208,
            "byteOffset" : 99624
        },
        {
            "buffer" : 0,
            "byteLength" : 30000,
            "byteOffset" : 132832
        },
        {
            "buffer" : 0,
            "byteLength" : 611117,
            "byteOffset" : 162832
        },
        {
            "buffer" : 0,
            "byteLength" : 1343026,
            "byteOffset" : 773952
        }
    ],
    "buffers" : [
        {
            "byteLength" : 2116980,
            "uri" : "data:application/octet-stream;base64,"
        }
    ]
}
